# xmcd CD database file
#
# Track frame offsets:
#	150
#	7777
#	25189
#	38851
#	56607
#	71007
#	88946
#	101990
#	116616
#	129656
#	145369
#	162363
#	174297
#	185791
#	203011
#	219500
#	237727
#	254141
#	276491
#	295467
#
# Disc length: 4117 seconds
#
# Revision: 0
# Processed by: cddbd v1.5.2PL0 Copyright (c) Steve Scherf et al.
# Submitted via: CDex 1.51
#
DISCID=3f101314
DTITLE=Various Artist - The Country Way Volume Two
DYEAR=2009
DGENRE=Country
TTITLE0=Chris Scruggs - Get Well, Iva Lee
TTITLE1=Buddy Miller - Ellis County 
TTITLE2=Holly Williams - Mama
TTITLE3=The Felice Brothers - Penn Station
TTITLE4=Courtney Jaye - Tiger's Eye
TTITLE5=Guy Clark - The Guitar
TTITLE6=Ben Kweller - Fight
TTITLE7=Dierks Bentley - Beautiful World
TTITLE8=Those Darlins - Wild One
TTITLE9=Cherryholmes - Don't Belive
TTITLE10=Ryan Bingham and The Dead Horses - Country Roads
TTITLE11=Charlie Louvin - Darling Corey
TTITLE12=Sarah Jarosz - I Can't Love You Now
TTITLE13=Eli Young Band - Radio Waves
TTITLE14=Charlie Robison - Reconsider
TTITLE15=Jonathan Singleton and The Grove - Probably Just Time
TTITLE16=Justin Moore - Small Town USA
TTITLE17=Hill Country Revue - You Can Make It
TTITLE18=Nitty Gritty Dirt Band - The Resurrection
TTITLE19=Chris Scruggs - Old Souls Like You And Me
EXTD=YEAR: 2009
EXTT0=
EXTT1=
EXTT2=
EXTT3=
EXTT4=
EXTT5=
EXTT6=
EXTT7=
EXTT8=
EXTT9=
EXTT10=
EXTT11=
EXTT12=
EXTT13=
EXTT14=
EXTT15=
EXTT16=
EXTT17=
EXTT18=
EXTT19=
PLAYORDER=
